<mxfile host="app.diagrams.net" modified="2024-05-17T15:17:55.920Z" agent="Mozilla/5.0 (Windows NT 10.0; Win64; x64) AppleWebKit/537.36 (KHTML, like Gecko) Chrome/124.0.0.0 Safari/537.36" etag="R1SLx7w2xDiwmM81pMle" version="24.4.4" type="github">
  <diagram name="Page-1" id="e7e014a7-5840-1c2e-5031-d8a46d1fe8dd">
    <mxGraphModel dx="636" dy="316" grid="1" gridSize="10" guides="1" tooltips="1" connect="1" arrows="1" fold="1" page="1" pageScale="1" pageWidth="500" pageHeight="780" background="none" math="0" shadow="0">
      <root>
        <mxCell id="0" />
        <mxCell id="1" parent="0" />
        <mxCell id="2" value="Assistent hinzufügen" style="swimlane;whiteSpace=wrap;labelBackgroundColor=none;align=left;" parent="1" vertex="1">
          <mxGeometry x="20" y="20" width="460" height="740" as="geometry">
            <mxRectangle x="150" y="128" width="150" height="30" as="alternateBounds" />
          </mxGeometry>
        </mxCell>
        <mxCell id="MgezpqlqO5ehmBHzZB3i-65" style="edgeStyle=orthogonalEdgeStyle;rounded=0;orthogonalLoop=1;jettySize=auto;html=1;entryX=0.5;entryY=0;entryDx=0;entryDy=0;fontFamily=Helvetica;fontSize=12;fontColor=default;endArrow=open;endFill=0;" edge="1" parent="2" target="MgezpqlqO5ehmBHzZB3i-57">
          <mxGeometry relative="1" as="geometry">
            <mxPoint x="245" y="66" as="sourcePoint" />
          </mxGeometry>
        </mxCell>
        <mxCell id="5" value="" style="ellipse;shape=startState;labelBackgroundColor=none;fillColor=#000000;" parent="2" vertex="1">
          <mxGeometry x="230" y="40" width="30" height="30" as="geometry" />
        </mxCell>
        <mxCell id="8" value="Namen eingeben" style="labelBackgroundColor=none;rounded=1;whiteSpace=wrap;html=1;" parent="2" vertex="1">
          <mxGeometry x="190" y="216" width="110" height="50" as="geometry" />
        </mxCell>
        <mxCell id="9" value="" style="endArrow=open;endFill=1;rounded=0;labelBackgroundColor=none;fontColor=default;exitX=0.5;exitY=1;exitDx=0;exitDy=0;" parent="2" source="MgezpqlqO5ehmBHzZB3i-57" target="8" edge="1">
          <mxGeometry relative="1" as="geometry">
            <mxPoint x="240" y="168" as="sourcePoint" />
          </mxGeometry>
        </mxCell>
        <mxCell id="MgezpqlqO5ehmBHzZB3i-50" style="edgeStyle=orthogonalEdgeStyle;rounded=0;orthogonalLoop=1;jettySize=auto;html=1;entryX=0.5;entryY=0;entryDx=0;entryDy=0;endArrow=open;endFill=0;" edge="1" parent="2" source="10" target="MgezpqlqO5ehmBHzZB3i-49">
          <mxGeometry relative="1" as="geometry" />
        </mxCell>
        <mxCell id="10" value="Stunden-Soll eingeben" style="labelBackgroundColor=none;rounded=1;whiteSpace=wrap;html=1;" parent="2" vertex="1">
          <mxGeometry x="190" y="316" width="110" height="50" as="geometry" />
        </mxCell>
        <mxCell id="11" value="" style="endArrow=open;endFill=1;rounded=0;labelBackgroundColor=none;fontColor=default;" parent="2" source="8" target="10" edge="1">
          <mxGeometry relative="1" as="geometry" />
        </mxCell>
        <mxCell id="MgezpqlqO5ehmBHzZB3i-42" value="[nein]" style="text;html=1;align=center;verticalAlign=middle;resizable=0;points=[];autosize=1;strokeColor=none;fillColor=none;" vertex="1" parent="2">
          <mxGeometry x="240" y="166" width="50" height="30" as="geometry" />
        </mxCell>
        <mxCell id="MgezpqlqO5ehmBHzZB3i-52" style="edgeStyle=orthogonalEdgeStyle;rounded=0;orthogonalLoop=1;jettySize=auto;html=1;entryX=0.5;entryY=0;entryDx=0;entryDy=0;endArrow=open;endFill=0;" edge="1" parent="2" source="MgezpqlqO5ehmBHzZB3i-49" target="MgezpqlqO5ehmBHzZB3i-51">
          <mxGeometry relative="1" as="geometry" />
        </mxCell>
        <mxCell id="MgezpqlqO5ehmBHzZB3i-77" style="edgeStyle=orthogonalEdgeStyle;rounded=0;orthogonalLoop=1;jettySize=auto;html=1;strokeColor=default;align=center;verticalAlign=middle;fontFamily=Helvetica;fontSize=12;fontColor=default;labelBackgroundColor=default;endArrow=open;endFill=0;entryX=0.75;entryY=0.5;entryDx=0;entryDy=0;entryPerimeter=0;" edge="1" parent="2" source="MgezpqlqO5ehmBHzZB3i-49" target="MgezpqlqO5ehmBHzZB3i-74">
          <mxGeometry relative="1" as="geometry">
            <mxPoint x="355" y="626" as="targetPoint" />
            <Array as="points">
              <mxPoint x="350" y="441" />
            </Array>
          </mxGeometry>
        </mxCell>
        <mxCell id="MgezpqlqO5ehmBHzZB3i-49" value="" style="rhombus;whiteSpace=wrap;html=1;" vertex="1" parent="2">
          <mxGeometry x="220" y="416" width="50" height="50" as="geometry" />
        </mxCell>
        <mxCell id="MgezpqlqO5ehmBHzZB3i-73" style="edgeStyle=orthogonalEdgeStyle;rounded=0;orthogonalLoop=1;jettySize=auto;html=1;strokeColor=default;align=center;verticalAlign=middle;fontFamily=Helvetica;fontSize=12;fontColor=default;labelBackgroundColor=default;endArrow=open;endFill=0;" edge="1" parent="2" source="MgezpqlqO5ehmBHzZB3i-51">
          <mxGeometry relative="1" as="geometry">
            <mxPoint x="245" y="646" as="targetPoint" />
          </mxGeometry>
        </mxCell>
        <mxCell id="MgezpqlqO5ehmBHzZB3i-51" value="Über-/ Minusstunden eingeben" style="rounded=1;whiteSpace=wrap;html=1;" vertex="1" parent="2">
          <mxGeometry x="185" y="526" width="120" height="60" as="geometry" />
        </mxCell>
        <mxCell id="MgezpqlqO5ehmBHzZB3i-55" value="Über-/ Minusstunden&lt;div&gt;vorhanden?&lt;/div&gt;" style="text;html=1;align=center;verticalAlign=middle;resizable=0;points=[];autosize=1;strokeColor=none;fillColor=none;" vertex="1" parent="2">
          <mxGeometry x="260" y="396" width="130" height="40" as="geometry" />
        </mxCell>
        <mxCell id="MgezpqlqO5ehmBHzZB3i-56" value="[ja]" style="text;html=1;align=center;verticalAlign=middle;resizable=0;points=[];autosize=1;strokeColor=none;fillColor=none;" vertex="1" parent="2">
          <mxGeometry x="240" y="476" width="40" height="30" as="geometry" />
        </mxCell>
        <mxCell id="MgezpqlqO5ehmBHzZB3i-61" style="edgeStyle=orthogonalEdgeStyle;rounded=0;orthogonalLoop=1;jettySize=auto;html=1;entryX=1;entryY=0.5;entryDx=0;entryDy=0;fontFamily=Helvetica;fontSize=12;fontColor=default;endArrow=open;endFill=0;" edge="1" parent="2" source="MgezpqlqO5ehmBHzZB3i-57" target="MgezpqlqO5ehmBHzZB3i-69">
          <mxGeometry relative="1" as="geometry">
            <mxPoint x="100" y="317.5" as="targetPoint" />
          </mxGeometry>
        </mxCell>
        <mxCell id="MgezpqlqO5ehmBHzZB3i-57" value="" style="rhombus;whiteSpace=wrap;html=1;" vertex="1" parent="2">
          <mxGeometry x="220" y="116" width="50" height="50" as="geometry" />
        </mxCell>
        <mxCell id="MgezpqlqO5ehmBHzZB3i-58" value="aus Archiv?" style="text;html=1;align=center;verticalAlign=middle;resizable=0;points=[];autosize=1;strokeColor=none;fillColor=none;fontFamily=Helvetica;fontSize=12;fontColor=default;" vertex="1" parent="2">
          <mxGeometry x="260" y="116" width="90" height="30" as="geometry" />
        </mxCell>
        <mxCell id="MgezpqlqO5ehmBHzZB3i-62" style="edgeStyle=orthogonalEdgeStyle;rounded=0;orthogonalLoop=1;jettySize=auto;html=1;fontFamily=Helvetica;fontSize=12;fontColor=default;endArrow=open;endFill=0;exitX=1;exitY=0.5;exitDx=0;exitDy=0;" edge="1" parent="2" source="MgezpqlqO5ehmBHzZB3i-60" target="10">
          <mxGeometry relative="1" as="geometry">
            <mxPoint x="175" y="346" as="targetPoint" />
            <mxPoint x="125" y="342.5" as="sourcePoint" />
          </mxGeometry>
        </mxCell>
        <mxCell id="MgezpqlqO5ehmBHzZB3i-63" style="edgeStyle=orthogonalEdgeStyle;rounded=0;orthogonalLoop=1;jettySize=auto;html=1;entryX=0;entryY=0.5;entryDx=0;entryDy=0;fontFamily=Helvetica;fontSize=12;fontColor=default;endArrow=open;endFill=0;exitX=0.5;exitY=1;exitDx=0;exitDy=0;" edge="1" parent="2" source="MgezpqlqO5ehmBHzZB3i-60" target="MgezpqlqO5ehmBHzZB3i-49">
          <mxGeometry relative="1" as="geometry">
            <mxPoint x="100" y="367.5" as="sourcePoint" />
            <Array as="points">
              <mxPoint x="95" y="441" />
            </Array>
          </mxGeometry>
        </mxCell>
        <mxCell id="MgezpqlqO5ehmBHzZB3i-60" value="" style="rhombus;whiteSpace=wrap;html=1;" vertex="1" parent="2">
          <mxGeometry x="70" y="316" width="50" height="50" as="geometry" />
        </mxCell>
        <mxCell id="MgezpqlqO5ehmBHzZB3i-64" value="Stunden-Soll&amp;nbsp;&lt;div&gt;gleich?&lt;/div&gt;" style="text;html=1;align=center;verticalAlign=middle;resizable=0;points=[];autosize=1;strokeColor=none;fillColor=none;fontFamily=Helvetica;fontSize=12;fontColor=default;" vertex="1" parent="2">
          <mxGeometry y="273" width="100" height="40" as="geometry" />
        </mxCell>
        <mxCell id="MgezpqlqO5ehmBHzZB3i-66" value="[nein]" style="text;html=1;align=center;verticalAlign=middle;resizable=0;points=[];autosize=1;strokeColor=none;fillColor=none;" vertex="1" parent="2">
          <mxGeometry x="90" y="374" width="50" height="30" as="geometry" />
        </mxCell>
        <mxCell id="MgezpqlqO5ehmBHzZB3i-68" value="[ja]" style="text;html=1;align=center;verticalAlign=middle;resizable=0;points=[];autosize=1;strokeColor=none;fillColor=none;" vertex="1" parent="2">
          <mxGeometry x="130" y="314" width="40" height="30" as="geometry" />
        </mxCell>
        <mxCell id="MgezpqlqO5ehmBHzZB3i-69" value="Assistent auswählen" style="rounded=1;whiteSpace=wrap;html=1;strokeColor=default;align=center;verticalAlign=middle;fontFamily=Helvetica;fontSize=12;fontColor=default;labelBackgroundColor=default;fillColor=default;" vertex="1" parent="2">
          <mxGeometry x="42.5" y="116" width="105" height="50" as="geometry" />
        </mxCell>
        <mxCell id="MgezpqlqO5ehmBHzZB3i-70" style="edgeStyle=orthogonalEdgeStyle;rounded=0;orthogonalLoop=1;jettySize=auto;html=1;entryX=0.95;entryY=0.75;entryDx=0;entryDy=0;entryPerimeter=0;strokeColor=default;align=center;verticalAlign=middle;fontFamily=Helvetica;fontSize=12;fontColor=default;labelBackgroundColor=default;endArrow=open;endFill=0;" edge="1" parent="2" source="MgezpqlqO5ehmBHzZB3i-69">
          <mxGeometry relative="1" as="geometry">
            <mxPoint x="95" y="316" as="targetPoint" />
          </mxGeometry>
        </mxCell>
        <mxCell id="MgezpqlqO5ehmBHzZB3i-71" value="[ja]" style="text;html=1;align=center;verticalAlign=middle;resizable=0;points=[];autosize=1;strokeColor=none;fillColor=none;" vertex="1" parent="2">
          <mxGeometry x="160" y="116" width="40" height="30" as="geometry" />
        </mxCell>
        <mxCell id="MgezpqlqO5ehmBHzZB3i-74" value="" style="shape=line;html=1;strokeWidth=6;strokeColor=#000000;align=center;verticalAlign=middle;fontFamily=Helvetica;fontSize=12;fontColor=default;labelBackgroundColor=default;fillColor=default;" vertex="1" parent="2">
          <mxGeometry x="200" y="641" width="200" height="10" as="geometry" />
        </mxCell>
        <mxCell id="MgezpqlqO5ehmBHzZB3i-79" value="" style="edgeStyle=orthogonalEdgeStyle;html=1;verticalAlign=bottom;endArrow=open;endSize=8;strokeColor=#000000;rounded=0;align=center;fontFamily=Helvetica;fontSize=12;fontColor=default;labelBackgroundColor=default;entryX=0.5;entryY=0;entryDx=0;entryDy=0;" edge="1" parent="2" source="MgezpqlqO5ehmBHzZB3i-74" target="MgezpqlqO5ehmBHzZB3i-72">
          <mxGeometry relative="1" as="geometry">
            <mxPoint x="300" y="705.9999999999998" as="targetPoint" />
            <mxPoint x="325" y="681" as="sourcePoint" />
          </mxGeometry>
        </mxCell>
        <mxCell id="MgezpqlqO5ehmBHzZB3i-72" value="" style="ellipse;html=1;shape=endState;fillColor=#000000;strokeColor=#000000;align=center;verticalAlign=middle;fontFamily=Helvetica;fontSize=12;fontColor=default;labelBackgroundColor=default;" vertex="1" parent="2">
          <mxGeometry x="285" y="693" width="30" height="30" as="geometry" />
        </mxCell>
        <mxCell id="MgezpqlqO5ehmBHzZB3i-80" value="[nein]" style="text;html=1;align=center;verticalAlign=middle;resizable=0;points=[];autosize=1;strokeColor=none;fillColor=none;" vertex="1" parent="2">
          <mxGeometry x="347" y="510" width="50" height="30" as="geometry" />
        </mxCell>
      </root>
    </mxGraphModel>
  </diagram>
</mxfile>
